<?xml version="1.0" encoding="UTF-8"?>
<!--Generator: Apple Native CoreSVG 326-->
<!DOCTYPE svg
PUBLIC "-//W3C//DTD SVG 1.1//EN"
       "http://www.w3.org/Graphics/SVG/1.1/DTD/svg11.dtd">
<svg version="1.1" xmlns="http://www.w3.org/2000/svg" xmlns:xlink="http://www.w3.org/1999/xlink" viewBox="0 0 19.9198 19.9218">
 <g>
  <rect height="19.9218" opacity="0" width="19.9198" x="0" y="0"/>
  <path d="M9.95468 19.9094C15.4511 19.9094 19.9197 15.4407 19.9197 9.95469C19.9197 4.46866 15.4511 0 9.95468 0C4.46865 0-8.88178e-16 4.46866-8.88178e-16 9.95469C-8.88178e-16 15.4407 4.46865 19.9094 9.95468 19.9094Z" fill="white" fill-opacity="0.85"/>
  <path d="M10.5066 14.7488C9.99478 14.7488 9.69843 14.4111 9.69843 13.8393L9.69843 6.91393L9.63822 6.91393L8.33376 7.77513C8.10182 7.9346 7.99198 7.95743 7.83863 7.95743C7.51736 7.95743 7.27066 7.66932 7.27066 7.35839C7.27066 7.09309 7.35979 6.94586 7.58158 6.78217L9.38941 5.55637C9.81842 5.26004 10.0837 5.16054 10.4567 5.16054C11.0017 5.16054 11.323 5.48793 11.323 6.07432L11.323 13.8393C11.323 14.4111 11.0287 14.7488 10.5066 14.7488Z" fill="white"/>
 </g>
</svg>
