<?xml version="1.0" encoding="UTF-8"?>
<!--Generator: Apple Native CoreSVG 232.5-->
<!DOCTYPE svg
PUBLIC "-//W3C//DTD SVG 1.1//EN"
       "http://www.w3.org/Graphics/SVG/1.1/DTD/svg11.dtd">
<svg version="1.1" xmlns="http://www.w3.org/2000/svg" xmlns:xlink="http://www.w3.org/1999/xlink" width="17.9728" height="17.999">
 <g>
  <rect height="17.999" opacity="0" width="17.9728" x="0" y="0"/>
  <path d="M6.08075 13.4602C6.39991 13.4602 6.5636 13.3586 6.81223 13.0105L8.92356 10.0112L8.96303 10.0112L11.0701 13.0105C11.3167 13.3586 11.4928 13.4602 11.8016 13.4602C12.2389 13.4602 12.5642 13.1742 12.5642 12.7577C12.5642 12.5608 12.5082 12.4075 12.3901 12.2438L9.93682 8.90223L12.4068 5.53788C12.5352 5.36173 12.5912 5.20838 12.5912 5.02398C12.5912 4.64059 12.2659 4.34637 11.8576 4.34637C11.5509 4.34637 11.354 4.44795 11.1365 4.77326L9.10794 7.78507L9.0581 7.78507L6.97382 4.76289C6.7459 4.44795 6.55938 4.34637 6.22988 4.34637C5.81333 4.34637 5.46734 4.66131 5.46734 5.05925C5.46734 5.27471 5.52332 5.4177 5.67454 5.62493L8.02223 8.85048L5.53367 12.2873C5.40312 12.4635 5.3575 12.5961 5.3575 12.793C5.3575 13.1742 5.67454 13.4602 6.08075 13.4602Z" fill="#ffffff" fill-opacity="0.85"/>
 </g>
</svg>
