<?xml version="1.0" encoding="UTF-8"?>
<!--Generator: Apple Native CoreSVG 232.5-->
<!DOCTYPE svg
PUBLIC "-//W3C//DTD SVG 1.1//EN"
       "http://www.w3.org/Graphics/SVG/1.1/DTD/svg11.dtd">
<svg version="1.1" xmlns="http://www.w3.org/2000/svg" xmlns:xlink="http://www.w3.org/1999/xlink" width="20.2263" height="23.3562">
 <g>
  <rect height="23.3562" opacity="0" width="20.2263" x="0" y="0"/>
  <path d="M4.79305 16.635L8.03348 15.298C8.26179 15.1943 8.38411 15.1052 8.52942 14.9702L17.8734 5.68722C18.7886 4.77626 18.7782 3.71999 17.8548 2.7799L15.803 0.715408C14.8713-0.222598 13.7984-0.239276 12.8853 0.671692L3.5371 9.94221C3.39177 10.0875 3.30053 10.187 3.19683 10.4339L1.8409 13.6723C1.62312 14.1597 1.677 14.6511 2.05043 15.0224L3.44083 16.4109C3.80178 16.7843 4.2931 16.8485 4.79305 16.635ZM4.63336 15.1181C4.44223 15.1929 4.295 15.1866 4.12076 15.0123L3.45319 14.3467C3.27683 14.1703 3.28296 14.021 3.35773 13.8423L4.57297 11.0076L13.8738 1.77197C14.1507 1.50146 14.4878 1.48898 14.75 1.75126L16.8168 3.83285C17.077 4.09724 17.0624 4.43217 16.7856 4.70692L7.47434 13.9426ZM0.97707 17.1207L2.16369 17.1207C2.42516 17.1207 2.54746 17.073 2.7631 16.8947L3.68141 16.1927L2.26649 14.7532L0.692979 16.4218C0.398544 16.7391 0.543641 17.1207 0.97707 17.1207ZM3.67797 10.9994L7.67503 15.0176L8.59111 14.1036L4.59618 10.0875ZM11.7894 2.96361L15.7739 6.98175L16.69 6.07602L12.6951 2.05787Z" fill="#ffffff" fill-opacity="0.85"/>
 </g>
</svg>
